<mxfile host="Electron" agent="Mozilla/5.0 (X11; Linux x86_64) AppleWebKit/537.36 (KHTML, like Gecko) draw.io/24.7.8 Chrome/128.0.6613.36 Electron/32.0.1 Safari/537.36" version="24.7.8">
  <diagram name="Page-1" id="aaRaY8ft2iLj2oZ2BZox">
    <mxGraphModel dx="1564" dy="838" grid="1" gridSize="10" guides="1" tooltips="1" connect="1" arrows="1" fold="1" page="1" pageScale="1" pageWidth="850" pageHeight="1100" math="0" shadow="0">
      <root>
        <mxCell id="0" />
        <mxCell id="1" parent="0" />
        <mxCell id="XyORtPB68UUuvKS-vhi5-1" value="" style="ellipse;whiteSpace=wrap;html=1;aspect=fixed;" parent="1" vertex="1">
          <mxGeometry x="285" y="300" width="280" height="280" as="geometry" />
        </mxCell>
        <mxCell id="XyORtPB68UUuvKS-vhi5-2" value="1" style="text;html=1;align=center;verticalAlign=middle;resizable=0;points=[];autosize=1;strokeColor=none;fillColor=none;strokeWidth=1;fontSize=34;fontColor=#7EA6E0;" parent="1" vertex="1">
          <mxGeometry x="180" y="415" width="40" height="50" as="geometry" />
        </mxCell>
        <mxCell id="XyORtPB68UUuvKS-vhi5-3" value="2" style="text;html=1;align=center;verticalAlign=middle;resizable=0;points=[];autosize=1;strokeColor=none;fillColor=none;strokeWidth=1;fontSize=34;" parent="1" vertex="1">
          <mxGeometry x="405" y="630" width="40" height="50" as="geometry" />
        </mxCell>
        <mxCell id="XyORtPB68UUuvKS-vhi5-4" value="3" style="text;html=1;align=center;verticalAlign=middle;resizable=0;points=[];autosize=1;strokeColor=none;fillColor=none;strokeWidth=1;fontSize=34;fontColor=#7EA6E0;" parent="1" vertex="1">
          <mxGeometry x="630" y="415" width="40" height="50" as="geometry" />
        </mxCell>
        <mxCell id="XyORtPB68UUuvKS-vhi5-5" value="4" style="text;html=1;align=center;verticalAlign=middle;resizable=0;points=[];autosize=1;strokeColor=none;fillColor=none;strokeWidth=1;fontSize=34;" parent="1" vertex="1">
          <mxGeometry x="405" y="210" width="40" height="50" as="geometry" />
        </mxCell>
        <mxCell id="XyORtPB68UUuvKS-vhi5-6" value="" style="endArrow=none;html=1;rounded=0;fontColor=#FF3333;labelBackgroundColor=#FF3333;fontSize=100;strokeColor=#FF3333;strokeWidth=5;" parent="1" edge="1">
          <mxGeometry width="50" height="50" relative="1" as="geometry">
            <mxPoint x="260" y="630" as="sourcePoint" />
            <mxPoint x="300" y="590" as="targetPoint" />
          </mxGeometry>
        </mxCell>
        <mxCell id="XyORtPB68UUuvKS-vhi5-7" value="" style="endArrow=none;html=1;rounded=0;fontColor=#FF3333;labelBackgroundColor=#FF3333;fontSize=100;strokeColor=#FF3333;strokeWidth=5;" parent="1" edge="1">
          <mxGeometry width="50" height="50" relative="1" as="geometry">
            <mxPoint x="220" y="340" as="sourcePoint" />
            <mxPoint x="260" y="300" as="targetPoint" />
          </mxGeometry>
        </mxCell>
        <mxCell id="XyORtPB68UUuvKS-vhi5-8" value="" style="endArrow=none;html=1;rounded=0;fontColor=#FF3333;labelBackgroundColor=#FF3333;fontSize=100;strokeColor=#FF3333;strokeWidth=5;" parent="1" edge="1">
          <mxGeometry width="50" height="50" relative="1" as="geometry">
            <mxPoint x="565" y="590" as="sourcePoint" />
            <mxPoint x="605" y="550" as="targetPoint" />
          </mxGeometry>
        </mxCell>
        <mxCell id="XyORtPB68UUuvKS-vhi5-10" value="" style="endArrow=none;html=1;rounded=0;fontColor=#FF3333;labelBackgroundColor=#FF3333;fontSize=100;strokeColor=#FF3333;strokeWidth=5;" parent="1" edge="1">
          <mxGeometry width="50" height="50" relative="1" as="geometry">
            <mxPoint x="565" y="300" as="sourcePoint" />
            <mxPoint x="605" y="260" as="targetPoint" />
          </mxGeometry>
        </mxCell>
        <mxCell id="XyORtPB68UUuvKS-vhi5-11" value="" style="ellipse;whiteSpace=wrap;html=1;aspect=fixed;" parent="1" vertex="1">
          <mxGeometry x="935" y="295" width="280" height="280" as="geometry" />
        </mxCell>
        <mxCell id="XyORtPB68UUuvKS-vhi5-12" value="1" style="text;html=1;align=center;verticalAlign=middle;resizable=0;points=[];autosize=1;strokeColor=none;fillColor=none;strokeWidth=1;fontSize=34;fontColor=#7EA6E0;" parent="1" vertex="1">
          <mxGeometry x="830" y="410" width="40" height="50" as="geometry" />
        </mxCell>
        <mxCell id="XyORtPB68UUuvKS-vhi5-13" value="2" style="text;html=1;align=center;verticalAlign=middle;resizable=0;points=[];autosize=1;strokeColor=none;fillColor=none;strokeWidth=1;fontSize=34;" parent="1" vertex="1">
          <mxGeometry x="970" y="580" width="40" height="50" as="geometry" />
        </mxCell>
        <mxCell id="XyORtPB68UUuvKS-vhi5-14" value="3" style="text;html=1;align=center;verticalAlign=middle;resizable=0;points=[];autosize=1;strokeColor=none;fillColor=none;strokeWidth=1;fontSize=34;fontColor=#7EA6E0;" parent="1" vertex="1">
          <mxGeometry x="1250" y="510" width="40" height="50" as="geometry" />
        </mxCell>
        <mxCell id="XyORtPB68UUuvKS-vhi5-15" value="4" style="text;html=1;align=center;verticalAlign=middle;resizable=0;points=[];autosize=1;strokeColor=none;fillColor=none;strokeWidth=1;fontSize=34;" parent="1" vertex="1">
          <mxGeometry x="1190" y="230" width="40" height="50" as="geometry" />
        </mxCell>
        <mxCell id="XyORtPB68UUuvKS-vhi5-16" value="" style="endArrow=none;html=1;rounded=0;fontColor=#FF3333;labelBackgroundColor=#FF3333;fontSize=100;strokeColor=#FF3333;strokeWidth=5;" parent="1" edge="1">
          <mxGeometry width="50" height="50" relative="1" as="geometry">
            <mxPoint x="880" y="550" as="sourcePoint" />
            <mxPoint x="920" y="510" as="targetPoint" />
          </mxGeometry>
        </mxCell>
        <mxCell id="XyORtPB68UUuvKS-vhi5-17" value="" style="endArrow=none;html=1;rounded=0;fontColor=#FF3333;labelBackgroundColor=#FF3333;fontSize=100;strokeColor=#FF3333;strokeWidth=5;" parent="1" edge="1">
          <mxGeometry width="50" height="50" relative="1" as="geometry">
            <mxPoint x="870" y="360" as="sourcePoint" />
            <mxPoint x="910" y="320" as="targetPoint" />
          </mxGeometry>
        </mxCell>
        <mxCell id="XyORtPB68UUuvKS-vhi5-18" value="" style="endArrow=none;html=1;rounded=0;fontColor=#FF3333;labelBackgroundColor=#FF3333;fontSize=100;strokeColor=#FF3333;strokeWidth=5;" parent="1" edge="1">
          <mxGeometry width="50" height="50" relative="1" as="geometry">
            <mxPoint x="1080" y="650" as="sourcePoint" />
            <mxPoint x="1120" y="610" as="targetPoint" />
          </mxGeometry>
        </mxCell>
        <mxCell id="XyORtPB68UUuvKS-vhi5-19" value="" style="endArrow=none;html=1;rounded=0;fontColor=#FF3333;labelBackgroundColor=#FF3333;fontSize=100;strokeColor=#FF3333;strokeWidth=5;" parent="1" edge="1">
          <mxGeometry width="50" height="50" relative="1" as="geometry">
            <mxPoint x="1255" y="410" as="sourcePoint" />
            <mxPoint x="1295" y="370" as="targetPoint" />
          </mxGeometry>
        </mxCell>
        <mxCell id="XyORtPB68UUuvKS-vhi5-20" value="" style="endArrow=none;html=1;rounded=0;fontColor=#FF3333;labelBackgroundColor=#FF3333;fontSize=100;strokeColor=#FF3333;strokeWidth=5;" parent="1" edge="1">
          <mxGeometry width="50" height="50" relative="1" as="geometry">
            <mxPoint x="1110" y="250" as="sourcePoint" />
            <mxPoint x="1150" y="210" as="targetPoint" />
          </mxGeometry>
        </mxCell>
        <mxCell id="XyORtPB68UUuvKS-vhi5-21" value="5" style="text;html=1;align=center;verticalAlign=middle;resizable=0;points=[];autosize=1;strokeColor=none;fillColor=none;strokeWidth=1;fontSize=34;" parent="1" vertex="1">
          <mxGeometry x="980" y="210" width="40" height="50" as="geometry" />
        </mxCell>
        <mxCell id="XyORtPB68UUuvKS-vhi5-22" value="TIME_TO_EAT" style="text;html=1;align=center;verticalAlign=middle;resizable=0;points=[];autosize=1;strokeColor=none;fillColor=none;" parent="1" vertex="1">
          <mxGeometry x="350" y="790" width="100" height="30" as="geometry" />
        </mxCell>
        <mxCell id="XyORtPB68UUuvKS-vhi5-23" value="TIME_TO_SLEEP" style="text;html=1;align=center;verticalAlign=middle;resizable=0;points=[];autosize=1;strokeColor=none;fillColor=none;" parent="1" vertex="1">
          <mxGeometry x="340" y="830" width="120" height="30" as="geometry" />
        </mxCell>
        <mxCell id="XyORtPB68UUuvKS-vhi5-24" value="TIME_TO_DIE" style="text;html=1;align=center;verticalAlign=middle;resizable=0;points=[];autosize=1;strokeColor=none;fillColor=none;" parent="1" vertex="1">
          <mxGeometry x="350" y="870" width="100" height="30" as="geometry" />
        </mxCell>
        <mxCell id="4ENe5hHQbVo82obgwWPD-1" value="NOMBER OF PHILO EATING AT THE SAME TIME == &lt;font color=&quot;#d50707&quot;&gt;NBR_PHILO / 2&lt;/font&gt;" style="whiteSpace=wrap;html=1;fontSize=17;" parent="1" vertex="1">
          <mxGeometry x="460" y="30" width="590" height="60" as="geometry" />
        </mxCell>
        <mxCell id="4ENe5hHQbVo82obgwWPD-5" value="1er Round: Only Odd Number Philo until: Curr_philo / 2 &amp;lt; Nbr_Philo / 2&amp;nbsp;" style="text;html=1;align=center;verticalAlign=middle;resizable=0;points=[];autosize=1;strokeColor=none;fillColor=none;fontSize=20;" parent="1" vertex="1">
          <mxGeometry x="425" y="115" width="660" height="40" as="geometry" />
        </mxCell>
        <mxCell id="4ENe5hHQbVo82obgwWPD-6" value="" style="ellipse;whiteSpace=wrap;html=1;aspect=fixed;" parent="1" vertex="1">
          <mxGeometry x="1585" y="265" width="280" height="280" as="geometry" />
        </mxCell>
        <mxCell id="4ENe5hHQbVo82obgwWPD-7" value="1" style="text;html=1;align=center;verticalAlign=middle;resizable=0;points=[];autosize=1;strokeColor=none;fillColor=none;strokeWidth=1;fontSize=34;fontColor=#7EA6E0;" parent="1" vertex="1">
          <mxGeometry x="1480" y="380" width="40" height="50" as="geometry" />
        </mxCell>
        <mxCell id="4ENe5hHQbVo82obgwWPD-8" value="2" style="text;html=1;align=center;verticalAlign=middle;resizable=0;points=[];autosize=1;strokeColor=none;fillColor=none;strokeWidth=1;fontSize=34;" parent="1" vertex="1">
          <mxGeometry x="1590" y="530" width="40" height="50" as="geometry" />
        </mxCell>
        <mxCell id="4ENe5hHQbVo82obgwWPD-9" value="3" style="text;html=1;align=center;verticalAlign=middle;resizable=0;points=[];autosize=1;strokeColor=none;fillColor=none;strokeWidth=1;fontSize=34;fontColor=#7EA6E0;" parent="1" vertex="1">
          <mxGeometry x="1800" y="540" width="40" height="50" as="geometry" />
        </mxCell>
        <mxCell id="4ENe5hHQbVo82obgwWPD-10" value="4" style="text;html=1;align=center;verticalAlign=middle;resizable=0;points=[];autosize=1;strokeColor=none;fillColor=none;strokeWidth=1;fontSize=34;" parent="1" vertex="1">
          <mxGeometry x="1900" y="380" width="40" height="50" as="geometry" />
        </mxCell>
        <mxCell id="4ENe5hHQbVo82obgwWPD-11" value="" style="endArrow=none;html=1;rounded=0;fontColor=#FF3333;labelBackgroundColor=#FF3333;fontSize=100;strokeColor=#FF3333;strokeWidth=5;" parent="1" edge="1">
          <mxGeometry width="50" height="50" relative="1" as="geometry">
            <mxPoint x="1520" y="500" as="sourcePoint" />
            <mxPoint x="1560" y="460" as="targetPoint" />
          </mxGeometry>
        </mxCell>
        <mxCell id="4ENe5hHQbVo82obgwWPD-12" value="" style="endArrow=none;html=1;rounded=0;fontColor=#FF3333;labelBackgroundColor=#FF3333;fontSize=100;strokeColor=#FF3333;strokeWidth=5;" parent="1" edge="1">
          <mxGeometry width="50" height="50" relative="1" as="geometry">
            <mxPoint x="1520" y="330" as="sourcePoint" />
            <mxPoint x="1560" y="290" as="targetPoint" />
          </mxGeometry>
        </mxCell>
        <mxCell id="4ENe5hHQbVo82obgwWPD-13" value="" style="endArrow=none;html=1;rounded=0;fontColor=#FF3333;labelBackgroundColor=#FF3333;fontSize=100;strokeColor=#FF3333;strokeWidth=5;" parent="1" edge="1">
          <mxGeometry width="50" height="50" relative="1" as="geometry">
            <mxPoint x="1680" y="610" as="sourcePoint" />
            <mxPoint x="1720" y="570" as="targetPoint" />
          </mxGeometry>
        </mxCell>
        <mxCell id="4ENe5hHQbVo82obgwWPD-14" value="" style="endArrow=none;html=1;rounded=0;fontColor=#FF3333;labelBackgroundColor=#FF3333;fontSize=100;strokeColor=#FF3333;strokeWidth=5;" parent="1" edge="1">
          <mxGeometry width="50" height="50" relative="1" as="geometry">
            <mxPoint x="1880" y="530" as="sourcePoint" />
            <mxPoint x="1920" y="490" as="targetPoint" />
          </mxGeometry>
        </mxCell>
        <mxCell id="4ENe5hHQbVo82obgwWPD-15" value="" style="endArrow=none;html=1;rounded=0;fontColor=#FF3333;labelBackgroundColor=#FF3333;fontSize=100;strokeColor=#FF3333;strokeWidth=5;" parent="1" edge="1">
          <mxGeometry width="50" height="50" relative="1" as="geometry">
            <mxPoint x="1890" y="335" as="sourcePoint" />
            <mxPoint x="1930" y="295" as="targetPoint" />
          </mxGeometry>
        </mxCell>
        <mxCell id="4ENe5hHQbVo82obgwWPD-16" value="5" style="text;html=1;align=center;verticalAlign=middle;resizable=0;points=[];autosize=1;strokeColor=none;fillColor=none;strokeWidth=1;fontSize=34;fontColor=#7EA6E0;" parent="1" vertex="1">
          <mxGeometry x="1810" y="210" width="40" height="50" as="geometry" />
        </mxCell>
        <mxCell id="4ENe5hHQbVo82obgwWPD-17" value="6" style="text;html=1;align=center;verticalAlign=middle;resizable=0;points=[];autosize=1;strokeColor=none;fillColor=none;strokeWidth=1;fontSize=34;" parent="1" vertex="1">
          <mxGeometry x="1620" y="190" width="40" height="50" as="geometry" />
        </mxCell>
        <mxCell id="4ENe5hHQbVo82obgwWPD-18" value="" style="endArrow=none;html=1;rounded=0;fontColor=#FF3333;labelBackgroundColor=#FF3333;fontSize=100;strokeColor=#FF3333;strokeWidth=5;" parent="1" edge="1">
          <mxGeometry width="50" height="50" relative="1" as="geometry">
            <mxPoint x="1730" y="230" as="sourcePoint" />
            <mxPoint x="1770" y="190" as="targetPoint" />
          </mxGeometry>
        </mxCell>
        <mxCell id="4ENe5hHQbVo82obgwWPD-19" value="" style="ellipse;whiteSpace=wrap;html=1;aspect=fixed;" parent="1" vertex="1">
          <mxGeometry x="2185" y="255" width="280" height="280" as="geometry" />
        </mxCell>
        <mxCell id="4ENe5hHQbVo82obgwWPD-20" value="1" style="text;html=1;align=center;verticalAlign=middle;resizable=0;points=[];autosize=1;strokeColor=none;fillColor=none;strokeWidth=1;fontSize=34;fontColor=#7EA6E0;" parent="1" vertex="1">
          <mxGeometry x="2080" y="370" width="40" height="50" as="geometry" />
        </mxCell>
        <mxCell id="4ENe5hHQbVo82obgwWPD-21" value="2" style="text;html=1;align=center;verticalAlign=middle;resizable=0;points=[];autosize=1;strokeColor=none;fillColor=none;strokeWidth=1;fontSize=34;" parent="1" vertex="1">
          <mxGeometry x="2190" y="520" width="40" height="50" as="geometry" />
        </mxCell>
        <mxCell id="4ENe5hHQbVo82obgwWPD-22" value="3" style="text;html=1;align=center;verticalAlign=middle;resizable=0;points=[];autosize=1;strokeColor=none;fillColor=none;strokeWidth=1;fontSize=34;fontColor=#7EA6E0;" parent="1" vertex="1">
          <mxGeometry x="2400" y="530" width="40" height="50" as="geometry" />
        </mxCell>
        <mxCell id="4ENe5hHQbVo82obgwWPD-23" value="4" style="text;html=1;align=center;verticalAlign=middle;resizable=0;points=[];autosize=1;strokeColor=none;fillColor=none;strokeWidth=1;fontSize=34;" parent="1" vertex="1">
          <mxGeometry x="2500" y="370" width="40" height="50" as="geometry" />
        </mxCell>
        <mxCell id="4ENe5hHQbVo82obgwWPD-24" value="" style="endArrow=none;html=1;rounded=0;fontColor=#FF3333;labelBackgroundColor=#FF3333;fontSize=100;strokeColor=#FF3333;strokeWidth=5;" parent="1" edge="1">
          <mxGeometry width="50" height="50" relative="1" as="geometry">
            <mxPoint x="2120" y="490" as="sourcePoint" />
            <mxPoint x="2160" y="450" as="targetPoint" />
          </mxGeometry>
        </mxCell>
        <mxCell id="4ENe5hHQbVo82obgwWPD-25" value="" style="endArrow=none;html=1;rounded=0;fontColor=#FF3333;labelBackgroundColor=#FF3333;fontSize=100;strokeColor=#FF3333;strokeWidth=5;" parent="1" edge="1">
          <mxGeometry width="50" height="50" relative="1" as="geometry">
            <mxPoint x="2105" y="340" as="sourcePoint" />
            <mxPoint x="2145" y="300" as="targetPoint" />
          </mxGeometry>
        </mxCell>
        <mxCell id="4ENe5hHQbVo82obgwWPD-26" value="" style="endArrow=none;html=1;rounded=0;fontColor=#FF3333;labelBackgroundColor=#FF3333;fontSize=100;strokeColor=#FF3333;strokeWidth=5;" parent="1" edge="1">
          <mxGeometry width="50" height="50" relative="1" as="geometry">
            <mxPoint x="2280" y="600" as="sourcePoint" />
            <mxPoint x="2320" y="560" as="targetPoint" />
          </mxGeometry>
        </mxCell>
        <mxCell id="4ENe5hHQbVo82obgwWPD-27" value="" style="endArrow=none;html=1;rounded=0;fontColor=#FF3333;labelBackgroundColor=#FF3333;fontSize=100;strokeColor=#FF3333;strokeWidth=5;" parent="1" edge="1">
          <mxGeometry width="50" height="50" relative="1" as="geometry">
            <mxPoint x="2480" y="520" as="sourcePoint" />
            <mxPoint x="2520" y="480" as="targetPoint" />
          </mxGeometry>
        </mxCell>
        <mxCell id="4ENe5hHQbVo82obgwWPD-28" value="" style="endArrow=none;html=1;rounded=0;fontColor=#FF3333;labelBackgroundColor=#FF3333;fontSize=100;strokeColor=#FF3333;strokeWidth=5;" parent="1" edge="1">
          <mxGeometry width="50" height="50" relative="1" as="geometry">
            <mxPoint x="2490" y="325" as="sourcePoint" />
            <mxPoint x="2530" y="285" as="targetPoint" />
          </mxGeometry>
        </mxCell>
        <mxCell id="4ENe5hHQbVo82obgwWPD-29" value="5" style="text;html=1;align=center;verticalAlign=middle;resizable=0;points=[];autosize=1;strokeColor=none;fillColor=none;strokeWidth=1;fontSize=34;fontColor=#7EA6E0;" parent="1" vertex="1">
          <mxGeometry x="2430" y="215" width="40" height="50" as="geometry" />
        </mxCell>
        <mxCell id="4ENe5hHQbVo82obgwWPD-30" value="6" style="text;html=1;align=center;verticalAlign=middle;resizable=0;points=[];autosize=1;strokeColor=none;fillColor=none;strokeWidth=1;fontSize=34;" parent="1" vertex="1">
          <mxGeometry x="2290" y="170" width="40" height="50" as="geometry" />
        </mxCell>
        <mxCell id="4ENe5hHQbVo82obgwWPD-31" value="" style="endArrow=none;html=1;rounded=0;fontColor=#FF3333;labelBackgroundColor=#FF3333;fontSize=100;strokeColor=#FF3333;strokeWidth=5;" parent="1" edge="1">
          <mxGeometry width="50" height="50" relative="1" as="geometry">
            <mxPoint x="2370" y="225" as="sourcePoint" />
            <mxPoint x="2410" y="185" as="targetPoint" />
          </mxGeometry>
        </mxCell>
        <mxCell id="4ENe5hHQbVo82obgwWPD-32" value="7" style="text;html=1;align=center;verticalAlign=middle;resizable=0;points=[];autosize=1;strokeColor=none;fillColor=none;strokeWidth=1;fontSize=34;" parent="1" vertex="1">
          <mxGeometry x="2180" y="205" width="40" height="50" as="geometry" />
        </mxCell>
        <mxCell id="4ENe5hHQbVo82obgwWPD-33" value="" style="endArrow=none;html=1;rounded=0;fontColor=#FF3333;labelBackgroundColor=#FF3333;fontSize=100;strokeColor=#FF3333;strokeWidth=5;" parent="1" edge="1">
          <mxGeometry width="50" height="50" relative="1" as="geometry">
            <mxPoint x="2240" y="215" as="sourcePoint" />
            <mxPoint x="2280" y="175" as="targetPoint" />
          </mxGeometry>
        </mxCell>
        <mxCell id="4ENe5hHQbVo82obgwWPD-34" value="" style="ellipse;whiteSpace=wrap;html=1;aspect=fixed;" parent="1" vertex="1">
          <mxGeometry x="-345" y="310" width="280" height="280" as="geometry" />
        </mxCell>
        <mxCell id="4ENe5hHQbVo82obgwWPD-35" value="1" style="text;html=1;align=center;verticalAlign=middle;resizable=0;points=[];autosize=1;strokeColor=none;fillColor=none;strokeWidth=1;fontSize=34;fontColor=#7EA6E0;" parent="1" vertex="1">
          <mxGeometry x="-450" y="425" width="40" height="50" as="geometry" />
        </mxCell>
        <mxCell id="4ENe5hHQbVo82obgwWPD-36" value="2" style="text;html=1;align=center;verticalAlign=middle;resizable=0;points=[];autosize=1;strokeColor=none;fillColor=none;strokeWidth=1;fontSize=34;" parent="1" vertex="1">
          <mxGeometry x="-225" y="640" width="40" height="50" as="geometry" />
        </mxCell>
        <mxCell id="4ENe5hHQbVo82obgwWPD-39" value="" style="endArrow=none;html=1;rounded=0;fontColor=#FF3333;labelBackgroundColor=#FF3333;fontSize=100;strokeColor=#FF3333;strokeWidth=5;" parent="1" edge="1">
          <mxGeometry width="50" height="50" relative="1" as="geometry">
            <mxPoint x="-370" y="640" as="sourcePoint" />
            <mxPoint x="-330" y="600" as="targetPoint" />
          </mxGeometry>
        </mxCell>
        <mxCell id="4ENe5hHQbVo82obgwWPD-40" value="" style="endArrow=none;html=1;rounded=0;fontColor=#FF3333;labelBackgroundColor=#FF3333;fontSize=100;strokeColor=#FF3333;strokeWidth=5;" parent="1" edge="1">
          <mxGeometry width="50" height="50" relative="1" as="geometry">
            <mxPoint x="-330" y="290" as="sourcePoint" />
            <mxPoint x="-290" y="250" as="targetPoint" />
          </mxGeometry>
        </mxCell>
        <mxCell id="4ENe5hHQbVo82obgwWPD-41" value="" style="endArrow=none;html=1;rounded=0;fontColor=#FF3333;labelBackgroundColor=#FF3333;fontSize=100;strokeColor=#FF3333;strokeWidth=5;" parent="1" edge="1">
          <mxGeometry width="50" height="50" relative="1" as="geometry">
            <mxPoint x="-30" y="475" as="sourcePoint" />
            <mxPoint x="10" y="435" as="targetPoint" />
          </mxGeometry>
        </mxCell>
        <mxCell id="4ENe5hHQbVo82obgwWPD-43" value="3" style="text;html=1;align=center;verticalAlign=middle;resizable=0;points=[];autosize=1;strokeColor=none;fillColor=none;strokeWidth=1;fontSize=34;" parent="1" vertex="1">
          <mxGeometry x="-100" y="250" width="40" height="50" as="geometry" />
        </mxCell>
        <mxCell id="4ENe5hHQbVo82obgwWPD-44" value="" style="ellipse;whiteSpace=wrap;html=1;aspect=fixed;" parent="1" vertex="1">
          <mxGeometry x="2775" y="245" width="280" height="280" as="geometry" />
        </mxCell>
        <mxCell id="4ENe5hHQbVo82obgwWPD-45" value="1" style="text;html=1;align=center;verticalAlign=middle;resizable=0;points=[];autosize=1;strokeColor=none;fillColor=none;strokeWidth=1;fontSize=34;fontColor=#7EA6E0;" parent="1" vertex="1">
          <mxGeometry x="2680" y="380" width="40" height="50" as="geometry" />
        </mxCell>
        <mxCell id="4ENe5hHQbVo82obgwWPD-46" value="2" style="text;html=1;align=center;verticalAlign=middle;resizable=0;points=[];autosize=1;strokeColor=none;fillColor=none;strokeWidth=1;fontSize=34;" parent="1" vertex="1">
          <mxGeometry x="2780" y="510" width="40" height="50" as="geometry" />
        </mxCell>
        <mxCell id="4ENe5hHQbVo82obgwWPD-47" value="3" style="text;html=1;align=center;verticalAlign=middle;resizable=0;points=[];autosize=1;strokeColor=none;fillColor=none;strokeWidth=1;fontSize=34;fontColor=#7EA6E0;" parent="1" vertex="1">
          <mxGeometry x="2955" y="545" width="40" height="50" as="geometry" />
        </mxCell>
        <mxCell id="4ENe5hHQbVo82obgwWPD-48" value="4" style="text;html=1;align=center;verticalAlign=middle;resizable=0;points=[];autosize=1;strokeColor=none;fillColor=none;strokeWidth=1;fontSize=34;" parent="1" vertex="1">
          <mxGeometry x="3070" y="420" width="40" height="50" as="geometry" />
        </mxCell>
        <mxCell id="4ENe5hHQbVo82obgwWPD-49" value="" style="endArrow=none;html=1;rounded=0;fontColor=#FF3333;labelBackgroundColor=#FF3333;fontSize=100;strokeColor=#FF3333;strokeWidth=5;" parent="1" edge="1">
          <mxGeometry width="50" height="50" relative="1" as="geometry">
            <mxPoint x="2710" y="480" as="sourcePoint" />
            <mxPoint x="2750" y="440" as="targetPoint" />
          </mxGeometry>
        </mxCell>
        <mxCell id="4ENe5hHQbVo82obgwWPD-50" value="" style="endArrow=none;html=1;rounded=0;fontColor=#FF3333;labelBackgroundColor=#FF3333;fontSize=100;strokeColor=#FF3333;strokeWidth=5;" parent="1" edge="1">
          <mxGeometry width="50" height="50" relative="1" as="geometry">
            <mxPoint x="2670" y="360" as="sourcePoint" />
            <mxPoint x="2710" y="320" as="targetPoint" />
          </mxGeometry>
        </mxCell>
        <mxCell id="4ENe5hHQbVo82obgwWPD-51" value="" style="endArrow=none;html=1;rounded=0;fontColor=#FF3333;labelBackgroundColor=#FF3333;fontSize=100;strokeColor=#FF3333;strokeWidth=5;" parent="1" edge="1">
          <mxGeometry width="50" height="50" relative="1" as="geometry">
            <mxPoint x="2870" y="590" as="sourcePoint" />
            <mxPoint x="2910" y="550" as="targetPoint" />
          </mxGeometry>
        </mxCell>
        <mxCell id="4ENe5hHQbVo82obgwWPD-52" value="" style="endArrow=none;html=1;rounded=0;fontColor=#FF3333;labelBackgroundColor=#FF3333;fontSize=100;strokeColor=#FF3333;strokeWidth=5;" parent="1" edge="1">
          <mxGeometry width="50" height="50" relative="1" as="geometry">
            <mxPoint x="3020" y="535" as="sourcePoint" />
            <mxPoint x="3060" y="495" as="targetPoint" />
          </mxGeometry>
        </mxCell>
        <mxCell id="4ENe5hHQbVo82obgwWPD-53" value="" style="endArrow=none;html=1;rounded=0;fontColor=#FF3333;labelBackgroundColor=#FF3333;fontSize=100;strokeColor=#FF3333;strokeWidth=5;" parent="1" edge="1">
          <mxGeometry width="50" height="50" relative="1" as="geometry">
            <mxPoint x="3080" y="400" as="sourcePoint" />
            <mxPoint x="3120" y="360" as="targetPoint" />
          </mxGeometry>
        </mxCell>
        <mxCell id="4ENe5hHQbVo82obgwWPD-54" value="5" style="text;html=1;align=center;verticalAlign=middle;resizable=0;points=[];autosize=1;strokeColor=none;fillColor=none;strokeWidth=1;fontSize=34;fontColor=#7EA6E0;" parent="1" vertex="1">
          <mxGeometry x="3060" y="280" width="40" height="50" as="geometry" />
        </mxCell>
        <mxCell id="4ENe5hHQbVo82obgwWPD-55" value="6" style="text;html=1;align=center;verticalAlign=middle;resizable=0;points=[];autosize=1;strokeColor=none;fillColor=none;strokeWidth=1;fontSize=34;" parent="1" vertex="1">
          <mxGeometry x="2975" y="190" width="40" height="50" as="geometry" />
        </mxCell>
        <mxCell id="4ENe5hHQbVo82obgwWPD-56" value="" style="endArrow=none;html=1;rounded=0;fontColor=#FF3333;labelBackgroundColor=#FF3333;fontSize=100;strokeColor=#FF3333;strokeWidth=5;" parent="1" edge="1">
          <mxGeometry width="50" height="50" relative="1" as="geometry">
            <mxPoint x="3030" y="260" as="sourcePoint" />
            <mxPoint x="3070" y="220" as="targetPoint" />
          </mxGeometry>
        </mxCell>
        <mxCell id="4ENe5hHQbVo82obgwWPD-57" value="7" style="text;html=1;align=center;verticalAlign=middle;resizable=0;points=[];autosize=1;strokeColor=none;fillColor=none;strokeWidth=1;fontSize=34;fontColor=#7EA6E0;" parent="1" vertex="1">
          <mxGeometry x="2850" y="180" width="40" height="50" as="geometry" />
        </mxCell>
        <mxCell id="4ENe5hHQbVo82obgwWPD-58" value="" style="endArrow=none;html=1;rounded=0;fontColor=#FF3333;labelBackgroundColor=#FF3333;fontSize=100;strokeColor=#FF3333;strokeWidth=5;" parent="1" edge="1">
          <mxGeometry width="50" height="50" relative="1" as="geometry">
            <mxPoint x="2920" y="215" as="sourcePoint" />
            <mxPoint x="2960" y="175" as="targetPoint" />
          </mxGeometry>
        </mxCell>
        <mxCell id="4ENe5hHQbVo82obgwWPD-59" value="" style="endArrow=none;html=1;rounded=0;fontColor=#FF3333;labelBackgroundColor=#FF3333;fontSize=100;strokeColor=#FF3333;strokeWidth=5;" parent="1" edge="1">
          <mxGeometry width="50" height="50" relative="1" as="geometry">
            <mxPoint x="2800" y="235" as="sourcePoint" />
            <mxPoint x="2840" y="195" as="targetPoint" />
          </mxGeometry>
        </mxCell>
        <mxCell id="4ENe5hHQbVo82obgwWPD-60" value="8" style="text;html=1;align=center;verticalAlign=middle;resizable=0;points=[];autosize=1;strokeColor=none;fillColor=none;strokeWidth=1;fontSize=34;" parent="1" vertex="1">
          <mxGeometry x="2735" y="240" width="40" height="50" as="geometry" />
        </mxCell>
        <mxCell id="4ENe5hHQbVo82obgwWPD-61" value="" style="ellipse;whiteSpace=wrap;html=1;aspect=fixed;" parent="1" vertex="1">
          <mxGeometry x="3375" y="245" width="280" height="280" as="geometry" />
        </mxCell>
        <mxCell id="4ENe5hHQbVo82obgwWPD-62" value="1" style="text;html=1;align=center;verticalAlign=middle;resizable=0;points=[];autosize=1;strokeColor=none;fillColor=none;strokeWidth=1;fontSize=34;fontColor=#7EA6E0;" parent="1" vertex="1">
          <mxGeometry x="3280" y="380" width="40" height="50" as="geometry" />
        </mxCell>
        <mxCell id="4ENe5hHQbVo82obgwWPD-63" value="2" style="text;html=1;align=center;verticalAlign=middle;resizable=0;points=[];autosize=1;strokeColor=none;fillColor=none;strokeWidth=1;fontSize=34;" parent="1" vertex="1">
          <mxGeometry x="3380" y="510" width="40" height="50" as="geometry" />
        </mxCell>
        <mxCell id="4ENe5hHQbVo82obgwWPD-64" value="3" style="text;html=1;align=center;verticalAlign=middle;resizable=0;points=[];autosize=1;strokeColor=none;fillColor=none;strokeWidth=1;fontSize=34;fontColor=#7EA6E0;" parent="1" vertex="1">
          <mxGeometry x="3555" y="545" width="40" height="50" as="geometry" />
        </mxCell>
        <mxCell id="4ENe5hHQbVo82obgwWPD-65" value="4" style="text;html=1;align=center;verticalAlign=middle;resizable=0;points=[];autosize=1;strokeColor=none;fillColor=none;strokeWidth=1;fontSize=34;" parent="1" vertex="1">
          <mxGeometry x="3670" y="420" width="40" height="50" as="geometry" />
        </mxCell>
        <mxCell id="4ENe5hHQbVo82obgwWPD-66" value="" style="endArrow=none;html=1;rounded=0;fontColor=#FF3333;labelBackgroundColor=#FF3333;fontSize=100;strokeColor=#FF3333;strokeWidth=5;" parent="1" edge="1">
          <mxGeometry width="50" height="50" relative="1" as="geometry">
            <mxPoint x="3310" y="480" as="sourcePoint" />
            <mxPoint x="3350" y="440" as="targetPoint" />
          </mxGeometry>
        </mxCell>
        <mxCell id="4ENe5hHQbVo82obgwWPD-67" value="" style="endArrow=none;html=1;rounded=0;fontColor=#FF3333;labelBackgroundColor=#FF3333;fontSize=100;strokeColor=#FF3333;strokeWidth=5;" parent="1" edge="1">
          <mxGeometry width="50" height="50" relative="1" as="geometry">
            <mxPoint x="3270" y="360" as="sourcePoint" />
            <mxPoint x="3310" y="320" as="targetPoint" />
          </mxGeometry>
        </mxCell>
        <mxCell id="4ENe5hHQbVo82obgwWPD-68" value="" style="endArrow=none;html=1;rounded=0;fontColor=#FF3333;labelBackgroundColor=#FF3333;fontSize=100;strokeColor=#FF3333;strokeWidth=5;" parent="1" edge="1">
          <mxGeometry width="50" height="50" relative="1" as="geometry">
            <mxPoint x="3470" y="590" as="sourcePoint" />
            <mxPoint x="3510" y="550" as="targetPoint" />
          </mxGeometry>
        </mxCell>
        <mxCell id="4ENe5hHQbVo82obgwWPD-69" value="" style="endArrow=none;html=1;rounded=0;fontColor=#FF3333;labelBackgroundColor=#FF3333;fontSize=100;strokeColor=#FF3333;strokeWidth=5;" parent="1" edge="1">
          <mxGeometry width="50" height="50" relative="1" as="geometry">
            <mxPoint x="3620" y="535" as="sourcePoint" />
            <mxPoint x="3660" y="495" as="targetPoint" />
          </mxGeometry>
        </mxCell>
        <mxCell id="4ENe5hHQbVo82obgwWPD-70" value="" style="endArrow=none;html=1;rounded=0;fontColor=#FF3333;labelBackgroundColor=#FF3333;fontSize=100;strokeColor=#FF3333;strokeWidth=5;" parent="1" edge="1">
          <mxGeometry width="50" height="50" relative="1" as="geometry">
            <mxPoint x="3680" y="400" as="sourcePoint" />
            <mxPoint x="3720" y="360" as="targetPoint" />
          </mxGeometry>
        </mxCell>
        <mxCell id="4ENe5hHQbVo82obgwWPD-71" value="5" style="text;html=1;align=center;verticalAlign=middle;resizable=0;points=[];autosize=1;strokeColor=none;fillColor=none;strokeWidth=1;fontSize=34;fontColor=#7EA6E0;" parent="1" vertex="1">
          <mxGeometry x="3660" y="280" width="40" height="50" as="geometry" />
        </mxCell>
        <mxCell id="4ENe5hHQbVo82obgwWPD-72" value="6" style="text;html=1;align=center;verticalAlign=middle;resizable=0;points=[];autosize=1;strokeColor=none;fillColor=none;strokeWidth=1;fontSize=34;" parent="1" vertex="1">
          <mxGeometry x="3595" y="160" width="40" height="50" as="geometry" />
        </mxCell>
        <mxCell id="4ENe5hHQbVo82obgwWPD-73" value="" style="endArrow=none;html=1;rounded=0;fontColor=#FF3333;labelBackgroundColor=#FF3333;fontSize=100;strokeColor=#FF3333;strokeWidth=5;" parent="1" edge="1">
          <mxGeometry width="50" height="50" relative="1" as="geometry">
            <mxPoint x="3630" y="260" as="sourcePoint" />
            <mxPoint x="3670" y="220" as="targetPoint" />
          </mxGeometry>
        </mxCell>
        <mxCell id="4ENe5hHQbVo82obgwWPD-74" value="7" style="text;html=1;align=center;verticalAlign=middle;resizable=0;points=[];autosize=1;strokeColor=none;fillColor=none;strokeWidth=1;fontSize=34;fontColor=#7EA6E0;" parent="1" vertex="1">
          <mxGeometry x="3470" y="140" width="40" height="50" as="geometry" />
        </mxCell>
        <mxCell id="4ENe5hHQbVo82obgwWPD-75" value="" style="endArrow=none;html=1;rounded=0;fontColor=#FF3333;labelBackgroundColor=#FF3333;fontSize=100;strokeColor=#FF3333;strokeWidth=5;" parent="1" edge="1">
          <mxGeometry width="50" height="50" relative="1" as="geometry">
            <mxPoint x="3520" y="215" as="sourcePoint" />
            <mxPoint x="3560" y="175" as="targetPoint" />
          </mxGeometry>
        </mxCell>
        <mxCell id="4ENe5hHQbVo82obgwWPD-76" value="" style="endArrow=none;html=1;rounded=0;fontColor=#FF3333;labelBackgroundColor=#FF3333;fontSize=100;strokeColor=#FF3333;strokeWidth=5;" parent="1" edge="1">
          <mxGeometry width="50" height="50" relative="1" as="geometry">
            <mxPoint x="3410" y="210" as="sourcePoint" />
            <mxPoint x="3450" y="170" as="targetPoint" />
          </mxGeometry>
        </mxCell>
        <mxCell id="4ENe5hHQbVo82obgwWPD-77" value="8" style="text;html=1;align=center;verticalAlign=middle;resizable=0;points=[];autosize=1;strokeColor=none;fillColor=none;strokeWidth=1;fontSize=34;" parent="1" vertex="1">
          <mxGeometry x="3360" y="170" width="40" height="50" as="geometry" />
        </mxCell>
        <mxCell id="4ENe5hHQbVo82obgwWPD-78" value="" style="endArrow=none;html=1;rounded=0;fontColor=#FF3333;labelBackgroundColor=#FF3333;fontSize=100;strokeColor=#FF3333;strokeWidth=5;" parent="1" edge="1">
          <mxGeometry width="50" height="50" relative="1" as="geometry">
            <mxPoint x="3335" y="270" as="sourcePoint" />
            <mxPoint x="3375" y="230" as="targetPoint" />
          </mxGeometry>
        </mxCell>
        <mxCell id="4ENe5hHQbVo82obgwWPD-79" value="9" style="text;html=1;align=center;verticalAlign=middle;resizable=0;points=[];autosize=1;strokeColor=none;fillColor=none;strokeWidth=1;fontSize=34;fontColor=#FFFFFF;" parent="1" vertex="1">
          <mxGeometry x="3270" y="245" width="40" height="50" as="geometry" />
        </mxCell>
        <mxCell id="4ENe5hHQbVo82obgwWPD-80" value="2snd Round: All Pair&amp;nbsp;" style="text;html=1;align=center;verticalAlign=middle;resizable=0;points=[];autosize=1;strokeColor=none;fillColor=none;fontSize=20;" parent="1" vertex="1">
          <mxGeometry x="640" y="170" width="210" height="40" as="geometry" />
        </mxCell>
      </root>
    </mxGraphModel>
  </diagram>
</mxfile>
